# xmcd
#
# Track frame offsets:
#	150
#	28639
#	58029
#	103041
#	140688
#	205148
#
# Disc length: 3062 seconds
#
# Revision: 1
# Processed by: cddbd v1.4PL0 Copyright (c) Steve Scherf et al.
# Submitted via: audiograbber 1.81.01
#
DISCID=530bf406
DTITLE=Kern - Kern Kabare
DYEAR=2001
DGENRE=Talk
TTITLE0=Hallo_Belvaros
TTITLE1=TAXI
TTITLE2=Nemzetkozi Komuversverseny
TTITLE3=Evoolimpia
TTITLE4=Hallo, itt vagyok
TTITLE5=Buvati
EXTD=kiraj.b.
EXTT0=
EXTT1=
EXTT2=
EXTT3=
EXTT4=
EXTT5=
PLAYORDER=
